<svg width="173" height="262" viewBox="0 0 173 262" fill="none" xmlns="http://www.w3.org/2000/svg">
<rect x="1" y="32.2676" width="171" height="228.733" rx="15" fill="#C7DAFF" stroke="black" stroke-width="2"/>
<mask id="path-2-inside-1_9_78" fill="white">
<path fill-rule="evenodd" clip-rule="evenodd" d="M64 12.9383H47C42.5817 12.9383 39 16.52 39 20.9383V48.0658C39 52.4841 42.5817 56.0658 47 56.0658H126C130.418 56.0658 134 52.4841 134 48.0658V20.9383C134 16.52 130.418 12.9383 126 12.9383H108C108 5.79266 98.1503 0 86 0C73.8497 0 64 5.79266 64 12.9383ZM97 16.1728C97 19.7456 92.299 22.642 86.5 22.642C80.701 22.642 76 19.7456 76 16.1728C76 12.6 80.701 9.7037 86.5 9.7037C92.2962 9.7037 96.9954 12.5972 97 16.1676"/>
</mask>
<path fill-rule="evenodd" clip-rule="evenodd" d="M64 12.9383H47C42.5817 12.9383 39 16.52 39 20.9383V48.0658C39 52.4841 42.5817 56.0658 47 56.0658H126C130.418 56.0658 134 52.4841 134 48.0658V20.9383C134 16.52 130.418 12.9383 126 12.9383H108C108 5.79266 98.1503 0 86 0C73.8497 0 64 5.79266 64 12.9383ZM97 16.1728C97 19.7456 92.299 22.642 86.5 22.642C80.701 22.642 76 19.7456 76 16.1728C76 12.6 80.701 9.7037 86.5 9.7037C92.2962 9.7037 96.9954 12.5972 97 16.1676" fill="#FFBB00"/>
<path d="M96 16.1683L96 16.1736L98 16.1721L98 16.1669L96 16.1683ZM64 12.9383V14.9383H66V12.9383H64ZM108 12.9383H106V14.9383H108V12.9383ZM47 14.9383H64V10.9383H47V14.9383ZM41 20.9383C41 17.6246 43.6863 14.9383 47 14.9383V10.9383C41.4772 10.9383 37 15.4154 37 20.9383H41ZM41 48.0658V20.9383H37V48.0658H41ZM47 54.0658C43.6863 54.0658 41 51.3796 41 48.0658H37C37 53.5887 41.4772 58.0658 47 58.0658V54.0658ZM126 54.0658H47V58.0658H126V54.0658ZM132 48.0658C132 51.3795 129.314 54.0658 126 54.0658V58.0658C131.523 58.0658 136 53.5887 136 48.0658H132ZM132 20.9383V48.0658H136V20.9383H132ZM126 14.9383C129.314 14.9383 132 17.6246 132 20.9383H136C136 15.4154 131.523 10.9383 126 10.9383V14.9383ZM108 14.9383H126V10.9383H108V14.9383ZM110 12.9383C110 8.36698 106.863 4.59002 102.57 2.06556C98.2314 -0.486128 92.3684 -2 86 -2V2C91.7819 2 96.9189 3.38246 100.542 5.5135C104.212 7.67177 106 10.3639 106 12.9383H110ZM86 -2C79.6316 -2 73.7686 -0.486128 69.4298 2.06556C65.1372 4.59002 62 8.36698 62 12.9383H66C66 10.3639 67.7876 7.67177 71.4575 5.5135C75.0811 3.38246 80.2181 2 86 2V-2ZM86.5 24.642C89.7091 24.642 92.7101 23.8446 94.9737 22.45C97.2053 21.0751 99 18.9116 99 16.1728H95C95 17.0068 94.4442 18.078 92.8755 19.0444C91.3389 19.9912 89.0899 20.642 86.5 20.642V24.642ZM74 16.1728C74 18.9116 75.7947 21.0751 78.0263 22.45C80.2899 23.8446 83.2909 24.642 86.5 24.642V20.642C83.9101 20.642 81.6611 19.9912 80.1245 19.0444C78.5558 18.078 78 17.0068 78 16.1728H74ZM86.5 7.7037C83.2909 7.7037 80.2899 8.50107 78.0263 9.8957C75.7947 11.2706 74 13.434 74 16.1728H78C78 15.3388 78.5558 14.2677 80.1245 13.3012C81.6611 12.3545 83.9101 11.7037 86.5 11.7037V7.7037ZM99 16.165C98.9965 13.4284 97.2015 11.2672 94.9704 9.89364C92.7072 8.5003 89.7076 7.7037 86.5 7.7037V11.7037C89.0886 11.7037 91.3367 12.3539 92.8733 13.2999C94.442 14.2656 94.9989 15.3364 95 16.1702L99 16.165Z" fill="black" mask="url(#path-2-inside-1_9_78)"/>
<path d="M35.5455 76.2273V73.7273H53V76.2273H45.6818V97H42.8636V76.2273H35.5455ZM76.017 85.3636C76.017 87.8182 75.5739 89.9394 74.6875 91.7273C73.8011 93.5152 72.5852 94.8939 71.0398 95.8636C69.4943 96.8333 67.7292 97.3182 65.7443 97.3182C63.7595 97.3182 61.9943 96.8333 60.4489 95.8636C58.9034 94.8939 57.6875 93.5152 56.8011 91.7273C55.9148 89.9394 55.4716 87.8182 55.4716 85.3636C55.4716 82.9091 55.9148 80.7879 56.8011 79C57.6875 77.2121 58.9034 75.8333 60.4489 74.8636C61.9943 73.8939 63.7595 73.4091 65.7443 73.4091C67.7292 73.4091 69.4943 73.8939 71.0398 74.8636C72.5852 75.8333 73.8011 77.2121 74.6875 79C75.5739 80.7879 76.017 82.9091 76.017 85.3636ZM73.2898 85.3636C73.2898 83.3485 72.9527 81.6477 72.2784 80.2614C71.6117 78.875 70.7064 77.8258 69.5625 77.1136C68.4261 76.4015 67.1534 76.0455 65.7443 76.0455C64.3352 76.0455 63.0587 76.4015 61.9148 77.1136C60.7784 77.8258 59.8731 78.875 59.1989 80.2614C58.5322 81.6477 58.1989 83.3485 58.1989 85.3636C58.1989 87.3788 58.5322 89.0795 59.1989 90.4659C59.8731 91.8523 60.7784 92.9015 61.9148 93.6136C63.0587 94.3258 64.3352 94.6818 65.7443 94.6818C67.1534 94.6818 68.4261 94.3258 69.5625 93.6136C70.7064 92.9015 71.6117 91.8523 72.2784 90.4659C72.9527 89.0795 73.2898 87.3788 73.2898 85.3636ZM96.9375 97H89.7557V73.7273H97.2557C99.5133 73.7273 101.445 74.1932 103.051 75.125C104.657 76.0492 105.888 77.3788 106.744 79.1136C107.6 80.8409 108.028 82.9091 108.028 85.3182C108.028 87.7424 107.597 89.8295 106.733 91.5795C105.869 93.322 104.612 94.6629 102.96 95.6023C101.309 96.5341 99.3011 97 96.9375 97ZM92.5739 94.5H96.7557C98.6799 94.5 100.275 94.1288 101.54 93.3864C102.805 92.6439 103.748 91.5871 104.369 90.2159C104.991 88.8447 105.301 87.2121 105.301 85.3182C105.301 83.4394 104.994 81.822 104.381 80.4659C103.767 79.1023 102.85 78.0568 101.631 77.3295C100.411 76.5947 98.892 76.2273 97.0739 76.2273H92.5739V94.5ZM132.392 85.3636C132.392 87.8182 131.949 89.9394 131.062 91.7273C130.176 93.5152 128.96 94.8939 127.415 95.8636C125.869 96.8333 124.104 97.3182 122.119 97.3182C120.134 97.3182 118.369 96.8333 116.824 95.8636C115.278 94.8939 114.063 93.5152 113.176 91.7273C112.29 89.9394 111.847 87.8182 111.847 85.3636C111.847 82.9091 112.29 80.7879 113.176 79C114.063 77.2121 115.278 75.8333 116.824 74.8636C118.369 73.8939 120.134 73.4091 122.119 73.4091C124.104 73.4091 125.869 73.8939 127.415 74.8636C128.96 75.8333 130.176 77.2121 131.062 79C131.949 80.7879 132.392 82.9091 132.392 85.3636ZM129.665 85.3636C129.665 83.3485 129.328 81.6477 128.653 80.2614C127.987 78.875 127.081 77.8258 125.938 77.1136C124.801 76.4015 123.528 76.0455 122.119 76.0455C120.71 76.0455 119.434 76.4015 118.29 77.1136C117.153 77.8258 116.248 78.875 115.574 80.2614C114.907 81.6477 114.574 83.3485 114.574 85.3636C114.574 87.3788 114.907 89.0795 115.574 90.4659C116.248 91.8523 117.153 92.9015 118.29 93.6136C119.434 94.3258 120.71 94.6818 122.119 94.6818C123.528 94.6818 124.801 94.3258 125.938 93.6136C127.081 92.9015 127.987 91.8523 128.653 90.4659C129.328 89.0795 129.665 87.3788 129.665 85.3636Z" fill="black"/>
<path d="M42 117L32 127L27 122" stroke="#292929" stroke-width="4" stroke-linecap="round" stroke-linejoin="round"/>
<path d="M60 122H149.006" stroke="black" stroke-width="4" stroke-linecap="round"/>
<path d="M42 150L32 160L27 155" stroke="#292929" stroke-width="4" stroke-linecap="round" stroke-linejoin="round"/>
<path d="M60 155H149.006" stroke="black" stroke-width="4" stroke-linecap="round"/>
<path d="M42 183L32 193L27 188" stroke="#292929" stroke-width="4" stroke-linecap="round" stroke-linejoin="round"/>
<path d="M60 188H149.006" stroke="black" stroke-width="4" stroke-linecap="round"/>
<path d="M42 216L32 226L27 221" stroke="#292929" stroke-width="4" stroke-linecap="round" stroke-linejoin="round"/>
<path d="M60 221H149.006" stroke="black" stroke-width="4" stroke-linecap="round"/>
</svg>